<svg width="150" height="57" viewBox="0 0 150 57" fill="none" xmlns="http://www.w3.org/2000/svg">
<path d="M28.5 57C44.2401 57 57 44.2401 57 28.5C57 12.7599 44.2401 0 28.5 0C12.7599 0 0 12.7599 0 28.5C0 44.2401 12.7599 57 28.5 57Z" fill="#C60678"/>
<path d="M13 28C17.4183 28 21 24.4183 21 20C21 15.5817 17.4183 12 13 12C8.58172 12 5 15.5817 5 20C5 24.4183 8.58172 28 13 28Z" fill="white"/>
<path d="M44 46C48.4183 46 52 42.1944 52 37.5C52 32.8056 48.4183 29 44 29C39.5817 29 36 32.8056 36 37.5C36 42.1944 39.5817 46 44 46Z" fill="white"/>
<path d="M28.5 54C33.1944 54 37 50.6421 37 46.5C37 42.3579 33.1944 39 28.5 39C23.8056 39 20 42.3579 20 46.5C20 50.6421 23.8056 54 28.5 54Z" fill="white"/>
<path d="M13 46C17.4183 46 21 42.1944 21 37.5C21 32.8056 17.4183 29 13 29C8.58172 29 5 32.8056 5 37.5C5 42.1944 8.58172 46 13 46Z" fill="white"/>
<path d="M28.5 18C33.1944 18 37 14.6421 37 10.5C37 6.35786 33.1944 3 28.5 3C23.8056 3 20 6.35786 20 10.5C20 14.6421 23.8056 18 28.5 18Z" fill="white"/>
<path d="M28.5 44C37.0604 44 44 37.0604 44 28.5C44 19.9396 37.0604 13 28.5 13C19.9396 13 13 19.9396 13 28.5C13 37.0604 19.9396 44 28.5 44Z" fill="#C60678"/>
<path d="M44 28C48.4183 28 52 24.4183 52 20C52 15.5817 48.4183 12 44 12C39.5817 12 36 15.5817 36 20C36 24.4183 39.5817 28 44 28Z" fill="white"/>
<path d="M71 14V22.1845C71 24.7332 72.759 26.7793 75.3076 26.7793C77.8204 26.7793 79.5794 24.7332 79.5794 22.1845C79.5794 19.8333 77.8743 17.6256 75.4153 17.6256C74.9487 17.6256 74.482 17.7512 74.0333 17.8769V20.2999C74.3923 20.1384 74.7692 20.0307 75.2717 20.0307C76.4384 20.0307 77.282 20.9281 77.282 22.2025C77.282 23.4768 76.4384 24.3742 75.3435 24.3742C74.141 24.3742 73.2974 23.4768 73.2974 22.2025V14H71Z" fill="#222222"/>
<path d="M89.3021 26.564V21.5384C89.3021 19.2769 87.6149 17.6256 84.9944 17.6256C82.5893 17.6256 80.7227 19.4922 80.7227 22.2922C80.7227 24.5717 82.1944 26.6358 84.8867 26.6358C85.3534 26.6358 85.82 26.546 86.3405 26.4204V24.0332C85.9098 24.1948 85.5329 24.3024 85.0303 24.3024C83.8637 24.3024 83.0201 23.3691 83.0201 22.2025C83.0201 20.9281 83.8637 19.923 84.9585 19.923C86.2149 19.923 87.0046 20.6051 87.0046 21.6461V26.564H89.3021Z" fill="#222222"/>
<path d="M93.2622 26.564V14H90.9648V26.564H93.2622Z" fill="#222222"/>
<path d="M103.254 26.564V21.5384C103.254 19.2769 101.566 17.6256 98.9456 17.6256C96.5405 17.6256 94.6738 19.4922 94.6738 22.2922C94.6738 24.5717 96.1456 26.6358 98.8379 26.6358C99.3045 26.6358 99.7712 26.546 100.292 26.4204V24.0332C99.8609 24.1948 99.484 24.3024 98.9815 24.3024C97.8148 24.3024 96.9712 23.3691 96.9712 22.2025C96.9712 20.9281 97.8148 19.923 98.9097 19.923C100.166 19.923 100.956 20.6051 100.956 21.6461V26.564H103.254Z" fill="#222222"/>
<path d="M104.898 14V22.1845C104.898 24.7332 106.657 26.7793 109.205 26.7793C111.718 26.7793 113.477 24.7332 113.477 22.1845C113.477 19.8333 111.772 17.6256 109.313 17.6256C108.847 17.6256 108.38 17.7512 107.931 17.8769V20.2999C108.29 20.1384 108.667 20.0307 109.17 20.0307C110.336 20.0307 111.18 20.9281 111.18 22.2025C111.18 23.4768 110.336 24.3742 109.241 24.3742C108.039 24.3742 107.195 23.4768 107.195 22.2025V14H104.898Z" fill="#222222"/>
<path d="M123.2 26.564V21.5384C123.2 19.2769 121.513 17.6256 118.893 17.6256C116.488 17.6256 114.621 19.4922 114.621 22.2922C114.621 24.5717 116.093 26.6358 118.785 26.6358C119.252 26.6358 119.718 26.546 120.239 26.4204V24.0332C119.808 24.1948 119.431 24.3024 118.929 24.3024C117.762 24.3024 116.918 23.3691 116.918 22.2025C116.918 20.9281 117.762 19.923 118.857 19.923C120.113 19.923 120.903 20.6051 120.903 21.6461V26.564H123.2Z" fill="#222222"/>
<path d="M124.434 26.564H127.646C129.298 26.564 130.59 25.6486 130.59 23.9076C130.59 21.6102 126.893 21.1794 126.893 20.3897C126.893 20.0307 127.18 19.9948 127.467 19.9948H130.123V17.841H127.359C125.852 17.841 124.523 18.523 124.523 20.4076C124.523 22.5794 128.041 22.8307 128.041 23.9255C128.041 24.1948 127.826 24.4101 127.395 24.4101H124.434V26.564Z" fill="#222222"/>
<path d="M134.173 26.564V21.323C134.173 20.4256 134.64 19.923 135.483 19.923C136.327 19.923 136.793 20.4256 136.793 21.323V26.564H139.091V20.5333C139.091 18.6307 137.619 17.6256 136.183 17.6256C135.375 17.6256 134.711 17.8051 134.209 18.5051H134.173V14H131.875V26.564H134.173Z" fill="#222222"/>
<path d="M149.124 26.564V21.5384C149.124 19.2769 147.437 17.6256 144.816 17.6256C142.411 17.6256 140.545 19.4922 140.545 22.2922C140.545 24.5717 142.016 26.6358 144.709 26.6358C145.175 26.6358 145.642 26.546 146.162 26.4204V24.0332C145.732 24.1948 145.355 24.3024 144.852 24.3024C143.686 24.3024 142.842 23.3691 142.842 22.2025C142.842 20.9281 143.686 19.923 144.78 19.923C146.037 19.923 146.827 20.6051 146.827 21.6461V26.564H149.124Z" fill="#222222"/>
<path d="M77.8624 42.8672H76.9291V41.5211H71.8945V35.2391H72.8817V40.6147H75.9688V35.2391H76.956V40.6147H77.8624V42.8672Z" fill="#222222"/>
<path d="M83.3567 41.5211H80.2695V35.2391H83.1233C83.6917 35.2391 84.1404 35.3767 84.4695 35.6519C84.8045 35.9271 84.972 36.304 84.972 36.7826C84.972 37.0938 84.8943 37.363 84.7387 37.5903C84.5832 37.8177 84.3827 37.9792 84.1374 38.0749C84.5323 38.1467 84.8524 38.3322 85.0977 38.6313C85.349 38.9305 85.4746 39.3044 85.4746 39.7531C85.4746 40.2856 85.2832 40.7134 84.9002 41.0364C84.5233 41.3595 84.0088 41.5211 83.3567 41.5211ZM81.2567 38.6403V40.6147H83.1772C83.5601 40.6147 83.8592 40.5279 84.0746 40.3544C84.296 40.1749 84.4067 39.9266 84.4067 39.6095C84.4067 39.2984 84.299 39.0591 84.0836 38.8916C83.8682 38.7241 83.5661 38.6403 83.1772 38.6403H81.2567ZM81.2567 36.1455V37.7698H82.9528C83.2819 37.7698 83.5362 37.701 83.7156 37.5634C83.9011 37.4198 83.9939 37.2164 83.9939 36.9532C83.9939 36.6899 83.9011 36.4895 83.7156 36.3519C83.5362 36.2143 83.2819 36.1455 82.9528 36.1455H81.2567Z" fill="#222222"/>
<path d="M92.6699 41.5211H88.084V35.2391H92.5532V36.1455H89.0712V37.716H91.9071V38.6224H89.0712V40.6147H92.6699V41.5211Z" fill="#222222"/>
<path d="M94.6934 36.1455V35.2391H99.8357V36.1455H97.7536V41.5211H96.7665V36.1455H94.6934Z" fill="#222222"/>
<path d="M108.843 41.5211H107.856V35.2391H108.843V41.5211ZM104.652 41.5211H102.256V35.2391H103.243V37.4108H104.652C105.382 37.4108 105.957 37.6023 106.375 37.9852C106.794 38.3681 107.004 38.8647 107.004 39.4749C107.004 40.0732 106.791 40.5668 106.366 40.9557C105.942 41.3326 105.37 41.5211 104.652 41.5211ZM103.243 38.3172V40.6147H104.599C105.041 40.6147 105.385 40.5159 105.631 40.3185C105.876 40.1151 105.999 39.8339 105.999 39.4749C105.999 39.11 105.873 38.8258 105.622 38.6224C105.376 38.419 105.035 38.3172 104.599 38.3172H103.243Z" fill="#222222"/>
</svg>
