<svg width="32" height="34" viewBox="0 0 32 34" fill="none" xmlns="http://www.w3.org/2000/svg">
<path d="M31.4324 33.1532L28.892 9.48443C28.8496 9.10336 28.5109 8.80697 28.1298 8.80697H23.43V7.36737C23.43 3.30261 20.1273 0 16.0626 0C11.9978 0 8.69521 3.30261 8.69521 7.36737V8.80697H3.86832C3.48725 8.80697 3.14852 9.10336 3.10617 9.48443L0.565702 33.1532C0.52336 33.3649 0.608043 33.5766 0.735067 33.7459C0.86209 33.9153 1.0738 34 1.2855 34H30.7126C30.9244 34 31.1361 33.9153 31.2631 33.7459C31.3901 33.5766 31.4748 33.3649 31.4324 33.1532ZM22.6678 13.0834C23.0489 13.0834 23.3453 13.3798 23.3453 13.7609C23.3453 14.142 23.0489 14.4384 22.6678 14.4384C22.2867 14.4384 21.9904 14.142 21.9904 13.7609C21.9904 13.3798 22.2867 13.0834 22.6678 13.0834ZM10.2195 7.36737C10.2195 4.14944 12.8447 1.52428 16.0626 1.52428C19.2805 1.52428 21.9057 4.14944 21.9057 7.36737V8.80697H10.2195V7.36737ZM9.45736 13.0834C9.83843 13.0834 10.1348 13.3798 10.1348 13.7609C10.1348 14.142 9.83843 14.4384 9.45736 14.4384C9.07629 14.4384 8.7799 14.142 8.7799 13.7609C8.7799 13.3798 9.07629 13.0834 9.45736 13.0834ZM2.17467 32.4334L4.54578 10.2889H8.69521V11.6862C7.84839 11.9826 7.25561 12.787 7.25561 13.7186C7.25561 14.9041 8.22946 15.878 9.41502 15.878C10.6006 15.878 11.5744 14.9041 11.5744 13.7186C11.5744 12.787 10.9816 11.9826 10.1348 11.6862V10.2889H21.821V11.6862C20.9742 11.9826 20.3814 12.787 20.3814 13.7186C20.3814 14.9041 21.3552 15.878 22.5408 15.878C23.7263 15.878 24.7002 14.9041 24.7002 13.7186C24.7002 12.787 24.1074 11.9826 23.2606 11.6862V10.2889H27.5794L29.9505 32.4334H2.17467Z" fill="#222222"/>
</svg>
